<svg width="120" height="120" viewBox="0 0 120 120" fill="none" xmlns="http://www.w3.org/2000/svg">
<g id="Frame" clip-path="url(#clip0_2450_25093)">
<g id="Group">
<path id="Vector" d="M112.25 38.7562V42.6062H72.7998C75.7998 40.6562 78.2998 38.0062 80.0998 34.9062H108.35C110.5 34.9062 112.25 36.6062 112.25 38.7562Z" fill="#1EA0FF"/>
<path id="Vector_2" d="M116.1 56.1539C116.1 61.5039 111.75 65.8039 106.4 65.8039C101.1 65.8039 96.75 61.5039 96.75 56.1539V54.2539H116.1V56.1539Z" fill="#0061E3"/>
<path id="Vector_3" d="M89.2002 100.655H103.55V105.455H89.2002V100.655ZM89.2002 83.3555H103.55V96.8055H89.2002V83.3555Z" fill="#B5E6FF"/>
<path id="Vector_4" d="M92.8998 54.2539V56.1539C92.8998 61.5039 88.5498 65.8039 83.1998 65.8039C77.8998 65.8039 73.5498 61.5039 73.5498 56.1539V54.2539H92.8998Z" fill="#1EA0FF"/>
<path id="Vector_5" d="M103.55 105.454V100.654H89.1996V105.454H103.55ZM103.55 96.8039V83.3539H89.1996V96.8039H103.55ZM105.5 109.304H87.2496C86.7457 109.304 86.2624 109.104 85.9061 108.747C85.5498 108.391 85.3496 107.908 85.3496 107.404V81.4039C85.3496 80.3539 86.1996 79.5039 87.2496 79.5039H105.5C106.55 79.5039 107.45 80.3539 107.45 81.4039V107.404C107.45 108.454 106.55 109.304 105.5 109.304Z" fill="#0D499B"/>
<path id="Vector_6" d="M69.6996 54.2539V56.1539C69.6996 61.5039 65.3496 65.8039 59.9996 65.8039C54.6996 65.8039 50.3496 61.5039 50.3496 56.1539V54.2539H69.6996Z" fill="#0061E3"/>
<path id="Vector_7" d="M67.6 31.3047C66.85 31.5047 65.5 31.4047 65.5 31.4047C66.5 30.8047 67.55 30.1547 68.5 29.4547C69.8 28.4547 70.7 27.2047 71.55 25.8047C72.1 26.0547 72.6 26.3047 73.15 26.5547C72.65 27.6047 71.95 28.6047 71.1 29.4047C70.1 30.3047 68.9 30.9047 67.6 31.3047Z" fill="#FF007D"/>
<path id="Vector_8" d="M65.4502 100.758C66.5548 100.758 67.4502 99.8624 67.4502 98.7578C67.4502 97.6532 66.5548 96.7578 65.4502 96.7578C64.3456 96.7578 63.4502 97.6532 63.4502 98.7578C63.4502 99.8624 64.3456 100.758 65.4502 100.758Z" fill="#0D499B"/>
<path id="Vector_9" d="M64.5996 28.1531C64.9996 27.4031 65.3996 26.5531 65.6996 25.7031C66.1496 24.5031 66.3996 23.2531 66.4496 21.9531C66.4996 20.7531 66.2996 19.5531 66.1496 18.3031L69.6996 17.2031C69.7996 18.9031 69.8996 20.6031 69.4496 22.3031C68.8996 24.1531 67.8996 25.8031 66.3996 27.0031C66.3996 27.0031 65.0996 27.9031 64.5996 28.1531Z" fill="#EB5757"/>
<path id="Vector_10" d="M61.9502 116.106V81.1562H76.6502V116.106H61.9502ZM63.4502 98.7562C63.4502 99.8562 64.3502 100.756 65.4502 100.756C66.5502 100.756 67.4502 99.8562 67.4502 98.7562C67.4502 97.6562 66.5502 96.7562 65.4502 96.7562C64.3502 96.7562 63.4502 97.6562 63.4502 98.7562Z" fill="#B5E6FF"/>
<path id="Vector_11" d="M56.7994 19.8063C57.3994 16.5563 59.7994 14.1062 59.9494 13.9062C60.1494 14.1062 62.5494 16.5563 63.1494 19.8063C63.3494 20.8063 63.3494 21.8063 63.1494 22.7563C62.5494 26.0563 60.0994 28.5563 59.9494 28.6562C59.8494 28.5563 57.3994 26.0563 56.7994 22.7563C56.5994 21.8063 56.5994 20.8063 56.7994 19.8063Z" fill="#FF007D"/>
<path id="Vector_12" d="M54.5494 96.7562C53.4494 96.7562 52.5494 97.6562 52.5494 98.7562C52.5494 99.8562 53.4494 100.756 54.5494 100.756C55.6494 100.756 56.5494 99.8562 56.5494 98.7562C56.5494 97.6562 55.6494 96.7562 54.5494 96.7562ZM43.3994 116.106V81.1562H58.0994V116.106H43.3994Z" fill="#B5E6FF"/>
<path id="Vector_13" d="M54.5498 100.754C55.6544 100.754 56.5498 99.8585 56.5498 98.7539C56.5498 97.6493 55.6544 96.7539 54.5498 96.7539C53.4452 96.7539 52.5498 97.6493 52.5498 98.7539C52.5498 99.8585 53.4452 100.754 54.5498 100.754Z" fill="#0D499B"/>
<path id="Vector_14" d="M53.5493 27.0031C52.0493 25.8031 51.0493 24.1531 50.4993 22.3031C50.0493 20.6031 50.1493 18.9031 50.2493 17.2031L53.7993 18.3031C53.6493 19.5531 53.4493 20.7531 53.4993 21.9531C53.5493 23.2531 53.7993 24.5031 54.2493 25.7031C54.5493 26.5531 54.9493 27.4031 55.3493 28.1531C54.8493 27.9031 53.5493 27.0031 53.5493 27.0031Z" fill="#EB5757"/>
<path id="Vector_15" d="M48.3998 25.8047C49.2498 27.2047 50.1498 28.4547 51.4498 29.4547C52.3998 30.1547 53.4498 30.8047 54.4498 31.4047C54.4498 31.4047 53.0998 31.5047 52.3498 31.3047C51.0498 30.9047 49.8498 30.3047 48.8498 29.4047C47.9498 28.6047 47.2998 27.6047 46.7998 26.5547C47.3498 26.3047 47.8498 26.0547 48.3998 25.8047Z" fill="#FF007D"/>
<path id="Vector_16" d="M46.4994 56.1578C46.4994 61.5078 42.1494 65.8078 36.7994 65.8078C31.4994 65.8078 27.1494 61.5078 27.1494 56.1578V54.2578H46.4994V56.1578Z" fill="#1EA0FF"/>
<path id="Vector_17" d="M3.89941 46.5078H116.099V50.3578H3.89941V46.5078Z" fill="#0061E3"/>
<path id="Vector_18" d="M65.4998 31.4033C65.4998 31.4033 66.8498 31.5033 67.5998 31.3033C68.8998 30.9033 70.0998 30.3033 71.0998 29.4033C71.9498 28.6033 72.6498 27.6033 73.1498 26.5533C72.5998 26.3033 72.0998 26.0533 71.5498 25.8033C70.6998 27.2033 69.7998 28.4533 68.4998 29.4533C67.5498 30.1533 66.4998 30.8033 65.4998 31.4033ZM65.6998 25.7033C65.3998 26.5533 64.9998 27.4033 64.5998 28.1533C65.0998 27.9033 66.3998 27.0033 66.3998 27.0033C67.8998 25.8033 68.8998 24.1533 69.4498 22.3033C69.8998 20.6033 69.7998 18.9033 69.6998 17.2033L66.1498 18.3033C66.2998 19.5533 66.4998 20.7533 66.4498 21.9533C66.3998 23.2533 66.1498 24.5033 65.6998 25.7033ZM59.9498 13.9033C59.7998 14.1033 57.3998 16.5533 56.7998 19.8033C56.5998 20.8033 56.5998 21.8033 56.7998 22.7533C57.3998 26.0533 59.8498 28.5533 59.9498 28.6533C60.0998 28.5533 62.5498 26.0533 63.1498 22.7533C63.3498 21.8033 63.3498 20.8033 63.1498 19.8033C62.5498 16.5533 60.1498 14.1033 59.9498 13.9033ZM50.4998 22.3033C51.0498 24.1533 52.0498 25.8033 53.5498 27.0033C53.5498 27.0033 54.8498 27.9033 55.3498 28.1533C54.9498 27.4033 54.5498 26.5533 54.2498 25.7033C53.7998 24.5033 53.5498 23.2533 53.4998 21.9533C53.4498 20.7533 53.6498 19.5533 53.7998 18.3033L50.2498 17.2033C50.1498 18.9033 50.0498 20.6033 50.4998 22.3033ZM51.4498 29.4533C50.1498 28.4533 49.2498 27.2033 48.3998 25.8033C47.8498 26.0533 47.3498 26.3033 46.7998 26.5533C47.2998 27.6033 47.9498 28.6033 48.8498 29.4033C49.8498 30.3033 51.0498 30.9033 52.3498 31.3033C53.0998 31.5033 54.4498 31.4033 54.4498 31.4033C53.4498 30.8033 52.3998 30.1533 51.4498 29.4533ZM47.7498 32.7533C45.5998 31.1533 43.9998 28.9533 43.1498 26.4033C42.9498 25.7033 43.1998 24.9533 43.7998 24.5033C44.8998 23.8033 46.0498 23.2033 47.2498 22.8033C46.6498 20.2533 46.7498 17.6033 47.3998 15.0533C47.4984 14.7057 47.7083 14.4001 47.9973 14.1833C48.2863 13.9665 48.6385 13.8506 48.9998 13.8533C51.0998 13.9033 53.0998 14.4533 54.9498 15.3533C55.8998 13.4533 57.2498 11.8033 58.8498 10.5033C59.4998 9.95335 60.4498 10.0033 61.0998 10.5033C62.6998 11.8033 64.0498 13.4533 64.9998 15.3533C66.8498 14.4533 68.8498 13.9033 70.9498 13.8533C71.6498 13.8533 72.3498 14.3033 72.5498 15.0533C73.1998 17.6033 73.2998 20.2533 72.6998 22.8033C73.8998 23.2033 75.0498 23.8033 76.1498 24.5033C76.7498 24.9533 76.9998 25.7033 76.7998 26.4033C75.9498 28.9533 74.3498 31.1533 72.1998 32.7533C70.3998 34.0533 68.2998 34.7033 66.1498 34.7033C63.9498 34.7033 61.8498 34.0033 59.9498 32.8033C58.0998 34.0033 55.9998 34.7033 53.7998 34.7033C51.6498 34.7033 49.5498 34.0533 47.7498 32.7533Z" fill="#0D499B"/>
<path id="Vector_19" d="M47.1998 42.6062H7.7998V38.7562C7.7998 36.6562 9.4998 34.9062 11.5998 34.9062H39.9498C41.7498 38.0062 44.1998 40.6062 47.1998 42.6062Z" fill="#1EA0FF"/>
<path id="Vector_20" d="M43.1502 26.4048C44.0002 28.9548 45.6002 31.1548 47.7502 32.7548C49.5502 34.0548 51.6502 34.7048 53.8002 34.7048C56.0002 34.7048 58.1002 34.0048 59.9502 32.8048C61.8502 34.0048 63.9502 34.7048 66.1502 34.7048C68.3002 34.7048 70.4002 34.0548 72.2002 32.7548C74.3502 31.1548 75.9502 28.9548 76.8002 26.4048C76.8985 26.0597 76.8889 25.6926 76.7728 25.353C76.6566 25.0134 76.4394 24.7175 76.1502 24.5048C75.0737 23.7998 73.9151 23.2289 72.7002 22.8048C73.3002 20.2548 73.2002 17.6048 72.5502 15.0548C72.4517 14.7072 72.2418 14.4016 71.9527 14.1848C71.6637 13.968 71.3115 13.8521 70.9502 13.8548C68.8502 13.9048 66.8502 14.4548 65.0002 15.3548C64.0502 13.4548 62.7002 11.8048 61.1002 10.5048C60.7809 10.2492 60.3842 10.11 59.9752 10.11C59.5662 10.11 59.1695 10.2492 58.8502 10.5048C57.2502 11.8048 55.9002 13.4548 54.9502 15.3548C53.1002 14.4548 51.1002 13.9048 49.0002 13.8548C48.6389 13.8521 48.2867 13.968 47.9977 14.1848C47.7086 14.4016 47.4987 14.7072 47.4002 15.0548C46.7502 17.6048 46.6502 20.2548 47.2502 22.8048C46.0502 23.2048 44.9002 23.8048 43.8002 24.5048C43.2002 24.9548 42.9502 25.7048 43.1502 26.4048ZM59.9502 42.6048C49.3002 42.6048 40.6502 33.9548 40.6502 23.3048C40.6462 19.482 41.7765 15.7439 43.8979 12.5637C46.0193 9.38348 49.0364 6.90409 52.5675 5.43933C56.0986 3.97456 59.9849 3.59028 63.7344 4.33511C67.484 5.07994 70.9283 6.9204 73.6315 9.62355C76.3346 12.3267 78.1751 15.771 78.9199 19.5206C79.6648 23.2702 79.2805 27.1564 77.8157 30.6875C76.351 34.2186 73.8716 37.2358 70.6913 39.3572C67.5111 41.4786 63.773 42.6088 59.9502 42.6048ZM16.4502 100.655H30.8002V105.455H16.4502V100.655ZM16.4502 83.3549H30.8002V96.8048H16.4502V83.3549Z" fill="#B5E6FF"/>
<path id="Vector_21" d="M23.2494 56.1578C23.2494 61.5078 18.8994 65.8078 13.5494 65.8078C8.24941 65.8078 3.89941 61.5078 3.89941 56.1578V54.2578H23.2494V56.1578Z" fill="#0061E3"/>
<path id="Vector_22" d="M30.7996 105.454V100.654H16.4496V105.454H30.7996ZM30.7996 96.8039V83.3539H16.4496V96.8039H30.7996ZM12.5996 107.404V81.3539C12.5996 80.3039 13.4996 79.5039 14.5496 79.5039H32.7996C33.8496 79.5039 34.6996 80.3539 34.6996 81.4039V107.454C34.6496 108.504 33.7996 109.304 32.7496 109.304H14.4996C13.9957 109.304 13.5124 109.104 13.1561 108.747C12.7998 108.391 12.5996 107.908 12.5996 107.404Z" fill="#0D499B"/>
<path id="Vector_23" d="M105.5 79.5055H87.2498C86.7459 79.5055 86.2626 79.7056 85.9063 80.062C85.55 80.4183 85.3498 80.9016 85.3498 81.4055V107.405C85.3498 108.455 86.1998 109.305 87.2498 109.305H105.5C106.55 109.305 107.45 108.455 107.45 107.405V81.4055C107.45 80.3555 106.55 79.5055 105.5 79.5055ZM12.5998 107.405C12.5998 108.455 13.4498 109.305 14.4998 109.305H32.7498C33.7998 109.305 34.6498 108.505 34.6998 107.455V81.4055C34.6998 80.9016 34.4996 80.4183 34.1433 80.062C33.787 79.7056 33.3037 79.5055 32.7998 79.5055H14.5498C13.4998 79.5055 12.5998 80.3055 12.5998 81.3555V107.405ZM7.7998 68.4055C14.0998 71.4055 21.6498 69.1055 25.1998 63.1055C26.3983 65.1129 28.0972 66.775 30.1305 67.9292C32.1638 69.0834 34.4618 69.6901 36.7998 69.6901C39.1378 69.6901 41.4358 69.0834 43.4691 67.9292C45.5024 66.775 47.2013 65.1129 48.3998 63.1055C49.5983 65.1129 51.2972 66.775 53.3305 67.9292C55.3638 69.0834 57.6618 69.6901 59.9998 69.6901C62.3378 69.6901 64.6358 69.0834 66.6691 67.9292C68.7024 66.775 70.4013 65.1129 71.5998 63.1055C75.3998 69.5055 83.6998 71.6055 90.0998 67.8055C92.0498 66.6555 93.6998 65.0555 94.8498 63.1055C98.3998 69.1055 105.95 71.4055 112.25 68.4055V116.105H80.4998V79.2055C80.4998 78.7016 80.2996 78.2183 79.9433 77.862C79.587 77.5056 79.1037 77.3055 78.5998 77.3055H41.4498C40.9459 77.3055 40.4626 77.5056 40.1063 77.862C39.75 78.2183 39.5498 78.7016 39.5498 79.2055V116.105H7.7998V68.4055Z" fill="#D6F0FF"/>
<path id="Vector_24" d="M106.4 65.8057C111.75 65.8057 116.1 61.5057 116.1 56.1557V54.2557H96.7498V56.1557C96.7498 61.5057 101.1 65.8057 106.4 65.8057ZM73.5498 56.1557C73.5498 61.5057 77.8998 65.8057 83.1998 65.8057C88.5498 65.8057 92.8998 61.5057 92.8998 56.1557V54.2557H73.5498V56.1557ZM72.7998 42.6057H112.25V38.7557C112.25 36.6057 110.5 34.9057 108.35 34.9057H80.0998C78.2998 38.0057 75.7998 40.6557 72.7998 42.6057ZM61.9498 116.106H76.6498V81.1557H61.9498V116.106ZM50.3498 56.1557C50.3498 61.5057 54.6998 65.8057 59.9998 65.8057C65.3498 65.8057 69.6998 61.5057 69.6998 56.1557V54.2557H50.3498V56.1557ZM43.3998 116.106H58.0998V81.1557H43.3998V116.106ZM40.6498 23.3057C40.6498 33.9557 49.2998 42.6057 59.9498 42.6057C70.5998 42.6057 79.2998 33.9557 79.2998 23.3057C79.2998 18.1804 77.2638 13.265 73.6396 9.6409C70.0155 6.01676 65.1001 3.98074 59.9748 3.98074C54.8495 3.98074 49.9341 6.01676 46.31 9.6409C42.6858 13.265 40.6498 18.1804 40.6498 23.3057ZM27.1498 56.1557C27.1498 61.5057 31.4998 65.8057 36.7998 65.8057C42.1498 65.8057 46.4998 61.5057 46.4998 56.1557V54.2557H27.1498V56.1557ZM116.1 46.5057H3.8998V50.3557H116.1V46.5057ZM25.1998 63.1057C23.484 66.0012 20.7475 68.1504 17.5279 69.1311C14.3083 70.1118 10.8384 69.853 7.7998 68.4057V116.106H39.5498V79.2057C39.5498 78.1557 40.3998 77.3057 41.4498 77.3057H78.5998C79.6498 77.3057 80.4998 78.1557 80.4998 79.2057V116.106H112.25V68.4057C105.95 71.4057 98.3998 69.1057 94.8498 63.1057C93.6998 65.0557 92.0498 66.6557 90.0998 67.8057C83.6998 71.6057 75.3998 69.5057 71.5998 63.1057C70.4013 65.1132 68.7024 66.7753 66.6691 67.9295C64.6358 69.0837 62.3378 69.6904 59.9998 69.6904C57.6618 69.6904 55.3638 69.0837 53.3305 67.9295C51.2972 66.7753 49.5983 65.1132 48.3998 63.1057C47.2013 65.1132 45.5024 66.7753 43.4691 67.9295C41.4358 69.0837 39.1378 69.6904 36.7998 69.6904C34.4618 69.6904 32.1638 69.0837 30.1305 67.9295C28.0972 66.7753 26.3983 65.1132 25.1998 63.1057ZM39.9498 34.9057H11.5998C9.4998 34.9057 7.7998 36.6557 7.7998 38.7557V42.6057H47.1998C44.1998 40.6057 41.7498 38.0057 39.9498 34.9057ZM13.5498 65.8057C18.8998 65.8057 23.2498 61.5057 23.2498 56.1557V54.2557H3.8998V56.1557C3.8998 61.5057 8.24981 65.8057 13.5498 65.8057ZM3.8998 65.6057C1.4498 63.0557 0.0498047 59.7057 0.0498047 56.1557V44.5557C0.0498047 43.4557 0.899805 42.6057 1.9998 42.6057H3.8998V38.7557C3.8998 34.5057 7.3998 31.0057 11.6498 31.0057H38.1498C36.3499 25.9615 36.3499 20.45 38.1498 15.4057C42.4498 3.35574 55.7498 -2.94426 67.7998 1.35574C79.8498 5.65574 86.1498 18.9557 81.8498 31.0057H108.35C112.65 31.0057 116.1 34.4557 116.1 38.7557V42.6057H118.05C119.1 42.6057 119.95 43.5057 119.95 44.5557V56.1557C119.95 59.7057 118.6 63.1057 116.1 65.6057V118.106C116.1 119.156 115.2 120.006 114.15 120.006H5.8498C5.59373 120.006 5.34016 119.955 5.10357 119.857C4.86699 119.759 4.65202 119.616 4.47095 119.435C4.28987 119.254 4.14624 119.039 4.04824 118.802C3.95024 118.565 3.8998 118.312 3.8998 118.056V65.6057Z" fill="#0D499B"/>
</g>
</g>
<defs>
<clipPath id="clip0_2450_25093">
<rect width="120" height="120" fill="white"/>
</clipPath>
</defs>
</svg>
