<svg width="120" height="120" viewBox="0 0 120 120" fill="none" xmlns="http://www.w3.org/2000/svg">
<g id="Group">
<path id="Vector" d="M118.125 111.3V118.125H84.375V115.463C84.3771 113.484 85.0606 111.567 86.3105 110.034C87.5604 108.5 89.3003 107.445 91.2375 107.044C91.8 106.931 92.3625 106.875 92.9625 106.875H113.7C113.812 106.875 113.944 106.875 114.056 106.894C116.325 107.081 118.125 108.975 118.125 111.3Z" fill="#404040"/>
<path id="Vector_2" d="M109.894 82.5941C114.356 88.1816 116.719 95.4191 116.4 102.563C116.363 103.369 116.288 104.194 115.931 104.925C115.575 105.638 114.881 106.257 114.075 106.294C113.306 106.313 112.594 105.844 111.975 105.375L105.694 100.782C104.137 99.6378 102.506 98.4191 101.606 96.6941C100.837 95.1941 100.688 93.4316 99.9563 91.9128C99.525 91.0316 98.8875 90.2253 98.025 89.7941C97.1625 89.3441 96.0563 89.3253 95.2688 89.9066C94.875 90.1878 94.6125 90.5441 94.425 90.9753C89.0438 90.4503 83.3437 92.7378 79.875 96.8816L80.1375 96.4128C83.0625 91.4253 86.0063 86.4191 88.9313 81.4128C89.7 80.1191 90.5063 78.7503 91.7813 77.9441C92.475 77.5128 93.2625 77.2691 94.0687 77.1378C95.0437 76.9878 96.075 76.9878 97.0688 77.0066C99.5063 77.0253 102.019 77.0628 104.287 78.0003C104.794 78.2066 105.281 78.4691 105.75 78.7691C107.344 79.7441 108.713 81.1316 109.894 82.5941Z" fill="#171717"/>
<path id="Vector_3" d="M94.4252 90.9754C94.6127 90.5442 94.8752 90.1879 95.2689 89.9067C96.0564 89.3254 97.1627 89.3442 98.0252 89.7942C98.8877 90.2254 99.5252 91.0317 99.9564 91.9129C100.688 93.4317 100.838 95.1942 101.606 96.6942C102.506 98.4192 104.138 99.6379 105.694 100.782L111.975 105.375C112.594 105.844 113.306 106.313 114.075 106.294L114.056 106.894C113.944 106.875 113.813 106.875 113.7 106.875H92.9627C92.3627 106.875 91.8002 106.932 91.2377 107.044L76.8752 110.625H70.3127C71.6064 110.625 72.7877 110.1 73.6314 109.257C74.4752 108.413 75.0002 107.232 75.0002 105.938C75.0002 104.695 74.5063 103.502 73.6273 102.623C72.7482 101.744 71.5559 101.25 70.3127 101.25H38.3439C38.2314 99.9754 38.0439 98.7004 37.7627 97.4067H37.7814C38.9252 97.1817 40.1064 96.9567 41.3064 96.7504C44.4189 96.1692 47.6439 95.5879 50.5314 95.0067C50.6064 94.9879 50.6627 94.9879 50.7189 94.9692C50.8314 94.9504 50.9252 94.9317 51.0189 94.9129C54.0564 94.2754 57.1689 93.6567 60.2439 93.9567C60.4502 93.9567 60.6564 93.9942 60.8627 94.0129C63.1314 94.2942 65.2689 95.1004 67.4439 95.8129C68.3814 96.1129 69.3189 96.4129 70.2752 96.6379C73.4627 97.3692 77.5127 99.1504 79.8752 96.8817C83.3439 92.7379 89.0439 90.4504 94.4252 90.9754Z" fill="#E5E5E5"/>
<path id="Vector_4" d="M106.557 67.8371C107.607 69.1121 107.663 70.8933 107.569 72.5433C107.494 74.0433 107.363 75.5621 106.819 76.9496C106.557 77.6058 106.2 78.2246 105.75 78.7683C105.282 78.4683 104.794 78.2058 104.288 77.9996C102.019 77.0621 99.5067 77.0246 97.0692 77.0058C96.0754 76.9871 95.0442 76.9871 94.0692 77.1371C93.0567 76.1246 92.4942 74.6246 92.5692 73.1808C92.6817 71.1371 93.9567 69.2433 95.6442 68.0621C97.3317 66.8808 99.4129 66.3558 101.457 66.2246C103.313 66.1121 105.394 66.4121 106.557 67.8371Z" fill="#171717"/>
<path id="Vector_5" d="M76.8754 110.626V118.126H37.4817C37.8192 115.557 38.1379 113.063 38.3442 110.626H70.3129H76.8754ZM60.2442 72.3945L53.6254 89.0633C52.4067 89.1195 51.3567 90.0383 51.1504 91.2758L50.7192 94.9695C50.6629 94.9883 50.6067 94.9883 50.5317 95.007L50.1754 92.6445C50.0254 91.5383 49.2004 90.7133 48.1879 90.4883V90.4695L41.6442 72.3945L32.7379 73.2758L32.2879 73.3133L27.3004 73.8195C27.0051 73.8503 26.7067 73.8104 26.4298 73.7032C26.1528 73.5961 25.9053 73.4247 25.7076 73.2031C25.5099 72.9816 25.3676 72.7163 25.2925 72.429C25.2173 72.1418 25.2115 71.8407 25.2754 71.5508C26.2317 67.407 28.1442 59.1383 29.3254 54.057C29.6165 52.7679 30.2955 51.5988 31.271 50.7071C32.2464 49.8154 33.4716 49.2439 34.7817 49.0695C37.2004 48.7508 39.8254 48.3383 42.0004 47.457C43.0879 48.2633 44.7192 49.0883 47.1942 49.707C47.1942 49.707 49.0692 59.082 50.9442 62.832C52.8192 59.082 54.6942 49.707 54.6942 49.707C57.1692 49.0883 58.8004 48.2633 59.8879 47.457C62.0629 48.3383 64.6879 48.7508 67.1067 49.0695C68.4168 49.2439 69.6419 49.8154 70.6174 50.7071C71.5929 51.5988 72.2719 52.7679 72.5629 54.057C73.7442 59.1383 75.6567 67.407 76.6129 71.5508C76.6769 71.8407 76.6711 72.1418 76.5959 72.429C76.5208 72.7163 76.3785 72.9816 76.1808 73.2031C75.9831 73.4247 75.7355 73.5961 75.4586 73.7032C75.1817 73.8104 74.8833 73.8503 74.5879 73.8195L69.6004 73.3133L69.1504 73.2758L60.2442 72.3945Z" fill="#404040"/>
<path id="Vector_6" d="M70.3125 101.25C71.5557 101.25 72.748 101.744 73.6271 102.623C74.5061 103.502 75 104.694 75 105.938C75 107.181 74.5061 108.373 73.6271 109.252C72.748 110.131 71.5557 110.625 70.3125 110.625H38.3438C38.6063 107.494 38.6813 104.4 38.3438 101.25H70.3125Z" fill="#E5E5E5"/>
<path id="Vector_7" d="M69.6004 73.3129L67.5004 95.6254L67.4441 95.8129C65.2691 95.1004 63.1316 94.2941 60.8629 94.0129C60.6566 93.9941 60.4504 93.9566 60.2441 93.9566L60.4316 92.6441C60.5066 92.1754 60.4504 91.7254 60.2816 91.3316L69.1504 73.2754L69.6004 73.3129Z" fill="#404040"/>
<path id="Vector_8" d="M69.15 73.2742L60.2813 91.3305C60.1189 90.8981 59.8437 90.517 59.4843 90.2269C59.1249 89.9367 58.6944 89.7481 58.2375 89.6805L54.1125 89.0805C53.9438 89.0617 53.775 89.043 53.625 89.0617L60.2438 72.393L69.15 73.2742ZM66.5625 27.2055V29.2492C66.5625 30.5617 65.4937 31.6305 64.1812 31.6305C62.8687 31.6305 61.7813 30.5617 61.7813 29.2492V25.518C61.7813 24.2055 62.8687 23.1367 64.1812 23.1367C65.4937 23.1367 66.5625 24.2055 66.5625 25.518V27.2055Z" fill="#E5E5E5"/>
<path id="Vector_9" d="M45.8438 11.4375C44.25 16.2188 39.4687 18.8813 39.4687 18.8813V25.5188C39.4687 24.2063 38.3813 23.1375 37.0688 23.1375C35.7563 23.1375 34.6875 24.2063 34.6875 25.5188V17.8125C34.6875 13.7813 36.1875 10.0875 38.6625 7.27502C40.1569 5.57496 41.9972 4.21373 44.0603 3.28244C46.1233 2.35116 48.3615 1.87131 50.625 1.87502C55.0312 1.87502 59.025 3.65627 61.8937 6.54377C63.3753 8.02238 64.5504 9.77894 65.3516 11.7127C66.1527 13.6465 66.5642 15.7194 66.5625 17.8125V25.5188C66.5625 24.2063 65.4937 23.1375 64.1812 23.1375C62.8687 23.1375 61.7813 24.2063 61.7813 25.5188V18.8813C52.0125 20.2875 45.8438 11.4375 45.8438 11.4375Z" fill="#171717"/>
<g id="Group_2">
<path id="Vector_10" d="M61.7813 25.5187V28.8C61.7813 31.9125 60.525 34.7437 58.5 36.8062C57.4313 37.8937 56.1563 38.7562 54.7313 39.3375C53.429 39.8742 52.0335 40.1482 50.625 40.1437C49.4063 40.1437 48.225 39.9375 47.1375 39.5625C45.4688 39 43.9688 38.0437 42.75 36.8062C40.6473 34.6719 39.4687 31.7961 39.4688 28.8V18.8812C39.4688 18.8812 44.25 16.2188 45.8438 11.4375C45.8438 11.4375 52.0125 20.2875 61.7813 18.8812V25.5187ZM60.2813 91.3313C60.45 91.725 60.5063 92.175 60.4313 92.6438L60.2438 93.9563C57.1688 93.6563 54.0563 94.275 51.0188 94.9125C50.925 94.9313 50.8313 94.95 50.7188 94.9688L51.15 91.275C51.2632 90.5967 51.6354 89.9888 52.188 89.5796C52.7407 89.1703 53.4307 88.9917 54.1125 89.0813L58.2375 89.6813C59.1938 89.8125 59.9625 90.4875 60.2813 91.3313Z" fill="#E5E5E5"/>
<path id="Vector_11" d="M55.481 43.3879C56.1185 45.3754 57.7873 46.6316 59.8873 47.4566C58.7998 48.2629 57.1685 49.0879 54.6935 49.7066C54.6935 49.7066 52.8185 59.0816 50.9435 62.8316C49.0685 59.0816 47.1935 49.7066 47.1935 49.7066C44.7185 49.0879 43.0873 48.2629 41.9998 47.4566C44.0998 46.6316 45.7685 45.3754 46.406 43.3879C46.8185 42.1691 47.0435 40.8566 47.1373 39.5629C48.2248 39.9379 49.406 40.1441 50.6248 40.1441C52.0333 40.1486 53.4288 39.8746 54.731 39.3379C54.806 40.7066 55.0498 42.0941 55.481 43.3879ZM50.1748 92.6441L50.531 95.0066C47.6435 95.5879 44.4185 96.1691 41.306 96.7504L40.9123 94.0129C40.8185 93.3191 40.9873 92.6441 41.381 92.1191C41.7748 91.5566 42.3748 91.1629 43.106 91.0504L47.231 90.4504C47.5498 90.3941 47.8873 90.4129 48.1873 90.4691V90.4879C49.1998 90.7129 50.0248 91.5379 50.1748 92.6441Z" fill="#E5E5E5"/>
<path id="Vector_12" d="M41.6438 72.3945L48.1876 90.4695C47.8876 90.4133 47.5501 90.3945 47.2313 90.4508L43.1063 91.0508C42.3751 91.1633 41.7751 91.557 41.3813 92.1195H41.3625L32.7375 73.2758L41.6438 72.3945Z" fill="#E5E5E5"/>
</g>
<path id="Vector_13" d="M41.3621 92.1191H41.3809C40.9871 92.6441 40.8184 93.3191 40.9121 94.0129L41.3059 96.7504C40.1059 96.9566 38.9246 97.1816 37.7809 97.4066H37.7621C37.7621 97.2941 37.7246 97.1816 37.7059 97.0691C37.4809 96.0379 37.1996 94.9504 36.4309 94.2379C35.6996 93.5629 34.6871 93.3566 33.6746 93.2816H33.5621V93.2629L32.2871 73.3129L32.7371 73.2754L41.3621 92.1191Z" fill="#404040"/>
<path id="Vector_14" d="M39.4687 28.7992V29.2492C39.4687 30.5617 38.3813 31.6305 37.0688 31.6305C35.7563 31.6305 34.6875 30.5617 34.6875 29.2492V25.518C34.6875 24.2055 35.7563 23.1367 37.0688 23.1367C38.3813 23.1367 39.4687 24.2055 39.4687 25.518V28.7992Z" fill="#E5E5E5"/>
<path id="Vector_15" d="M38.3438 110.624C38.1375 113.062 37.8187 115.555 37.4813 118.124H1.875C1.875 118.124 2.11875 104.268 2.04375 97.2366C2.025 95.5304 3.375 94.1054 5.1 94.0491L27.8062 93.2054C29.7188 93.1491 31.65 93.1304 33.5625 93.2804H33.675C34.6875 93.3554 35.7 93.5616 36.4313 94.2366C37.2 94.9491 37.4813 96.0366 37.7063 97.0679C37.725 97.1804 37.7625 97.2929 37.7625 97.4054C38.0438 98.6991 38.2313 99.9741 38.3438 101.249C38.6813 104.399 38.6063 107.493 38.3438 110.624Z" fill="#FAFAFA"/>
<path id="Vector_16" d="M35.3067 5.81284C36.5629 5.86909 37.6504 6.48784 38.6629 7.27534C36.0973 10.1856 34.6836 13.9331 34.6879 17.8128V18.4503C33.5067 19.0128 32.1567 19.2566 30.8629 18.9941C29.2129 18.6566 27.7317 17.4003 27.3004 15.7691C26.6817 13.4441 28.2192 11.1191 29.7754 9.26284C31.2192 7.51909 33.0567 5.73784 35.3067 5.81284Z" fill="#171717"/>
<path id="Vector_17" d="M47.7881 25.6355C48.1901 25.6346 48.5811 25.5048 48.9038 25.265C49.2264 25.0253 49.4635 24.6883 49.5802 24.3037C49.697 23.919 49.6871 23.5071 49.5522 23.1285C49.4173 22.7498 49.1643 22.4245 48.8306 22.2005C46.3331 20.5355 43.6763 21.4167 42.5006 22.2005C42.0869 22.4764 41.7997 22.9055 41.7023 23.3932C41.6049 23.8809 41.7053 24.3873 41.9813 24.8011C42.2572 25.2148 42.6863 25.502 43.174 25.5994C43.6617 25.6968 44.1681 25.5964 44.5819 25.3205C44.5931 25.3148 45.7013 24.6211 46.7531 25.3205C47.059 25.5264 47.4194 25.6361 47.7881 25.6355ZM54.2606 34.5211C54.7104 34.3085 55.0573 33.9259 55.2251 33.4576C55.3928 32.9892 55.3676 32.4734 55.155 32.0236C54.9424 31.5738 54.5599 31.2269 54.0915 31.0591C53.6231 30.8914 53.1073 30.9166 52.6575 31.1292C50.7075 32.0498 48.6319 31.148 48.5775 31.1236C48.3544 31.0192 48.113 30.9597 47.8669 30.9487C47.6209 30.9376 47.375 30.9751 47.1435 31.059C46.9119 31.1429 46.6991 31.2716 46.5173 31.4378C46.3355 31.6039 46.1882 31.8042 46.0838 32.0273C45.9794 32.2504 45.9199 32.4919 45.9088 32.7379C45.8977 32.984 45.9352 33.2298 46.0192 33.4614C46.1886 33.929 46.537 34.3102 46.9875 34.5211C47.085 34.5661 48.6544 35.2917 50.7431 35.2917C51.9582 35.2983 53.1596 35.0351 54.2606 34.5211ZM54.4763 25.3355C54.5944 25.2623 55.6538 24.6436 56.67 25.3205C56.8747 25.4576 57.1045 25.553 57.3461 25.6012C57.5878 25.6493 57.8366 25.6493 58.0782 25.601C58.3198 25.5527 58.5496 25.4572 58.7542 25.32C58.9588 25.1827 59.1343 25.0064 59.2706 24.8011C59.4073 24.5962 59.5023 24.3665 59.5502 24.1249C59.5981 23.8833 59.5979 23.6347 59.5496 23.3932C59.5014 23.1517 59.4061 22.9221 59.2691 22.7174C59.1321 22.5128 58.9561 22.3371 58.7513 22.2005C56.25 20.5336 53.5969 21.4186 52.4213 22.2005C52.014 22.4731 51.7307 22.8953 51.6328 23.3755C51.5349 23.8557 51.6302 24.3551 51.8981 24.7655C52.4513 25.628 53.6063 25.8736 54.4763 25.3355Z" fill="#171717"/>
<path id="Vector_18" d="M117.334 106.174C117.426 106.029 117.538 105.904 117.617 105.746C118.116 104.726 118.226 103.656 118.273 102.647C118.611 95.0831 116.091 87.3469 111.349 81.4125C110.314 80.1375 109.296 79.095 108.263 78.2531C108.364 78.0469 108.478 77.8519 108.565 77.6344C109.228 75.9394 109.365 74.1675 109.44 72.6506C109.553 70.68 109.468 68.4244 108.008 66.6544C106.633 64.9688 104.335 64.185 101.333 64.3537C98.657 64.5262 96.3789 65.2575 94.5658 66.5269C92.2802 68.1281 90.8327 70.5769 90.6958 73.0837C90.6492 74.1217 90.8284 75.1574 91.2208 76.1194C91.0727 76.1981 90.9227 76.2694 90.7764 76.3594C89.1302 77.4 88.1758 79.0088 87.3095 80.4675C85.3445 83.8294 83.372 87.1912 81.4033 90.5475L78.5008 95.4975L78.3995 95.6775C77.1827 96.5775 74.8595 95.9325 72.6095 95.3119C71.9781 95.1323 71.3429 94.9661 70.7045 94.8131C70.2977 94.7175 69.8927 94.5938 69.4877 94.4756L71.2783 75.3675L74.3833 75.6769C74.9767 75.7374 75.576 75.6561 76.1318 75.4397C76.6876 75.2232 77.184 74.8778 77.5802 74.4319C78.3789 73.5319 78.6977 72.2962 78.4314 71.1206C77.4733 66.9769 75.5608 58.7062 74.3814 53.6344C74.0005 51.9739 73.1227 50.4688 71.8649 49.3199C70.607 48.1709 69.0289 47.4325 67.3408 47.2031C62.6439 46.5881 58.172 45.63 57.2514 42.7875C57.0117 42.028 56.8404 41.2487 56.7395 40.4587C59.5956 38.9021 61.7778 36.3474 62.8689 33.2831C63.2833 33.4181 63.7164 33.5081 64.1739 33.5081C65.3049 33.5071 66.3893 33.0574 67.1891 32.2577C67.9888 31.4579 68.4385 30.3735 68.4395 29.2425V17.8162C68.4414 7.99312 60.4483 0 50.6252 0C45.9002 0 41.6102 1.86187 38.4189 4.875C37.5752 4.39687 36.5627 3.98625 35.3608 3.93187C32.2108 3.85875 29.8314 6.23813 28.3314 8.05125C26.6908 10.005 24.6114 12.9825 25.4795 16.2412C26.0739 18.4931 28.0839 20.3344 30.482 20.8256C30.947 20.9194 31.4252 20.9662 31.9108 20.9662C32.2089 20.9662 32.5089 20.8969 32.8089 20.8612V29.2406C32.8099 30.3716 33.2596 31.456 34.0594 32.2558C34.8591 33.0555 35.9435 33.5053 37.0745 33.5063C37.532 33.5063 37.9652 33.4144 38.3795 33.2812C39.5465 36.5538 41.9572 39.234 45.0883 40.74C44.9883 41.439 44.8296 42.1283 44.6139 42.8006C43.6989 45.6263 39.2252 46.5863 34.5264 47.2012C32.8406 47.4304 31.2645 48.1675 30.0078 49.3143C28.7512 50.4611 27.8734 51.9634 27.4914 53.6213C26.3102 58.7025 24.3977 66.975 23.4395 71.1244C23.3091 71.7031 23.3183 72.3045 23.4664 72.879C23.6144 73.4535 23.897 73.9845 24.2908 74.4281C24.6859 74.8734 25.181 75.2186 25.7354 75.4354C26.2899 75.6521 26.8878 75.7343 27.4802 75.675L30.5345 75.3694L31.5602 91.3013C30.2851 91.2767 29.0097 91.2867 27.7352 91.3312L5.04016 92.1769C3.7242 92.2122 2.47522 92.7649 1.56404 93.7151C0.652868 94.6652 0.152939 95.9362 0.172658 97.2525C0.240158 104.186 0.00203296 117.954 0.00015796 118.091C-0.00306251 118.34 0.04299 118.587 0.135659 118.818C0.228329 119.049 0.365781 119.259 0.540089 119.436C0.714397 119.614 0.922111 119.755 1.15125 119.852C1.38039 119.948 1.62642 119.999 1.87516 120H37.4833L37.5002 119.996V120H76.8752C77.3724 120 77.8493 119.802 78.201 119.451C78.5526 119.099 78.7502 118.622 78.7502 118.125V112.089L83.5727 110.884C82.8687 112.31 82.5017 113.878 82.5002 115.468V118.125C82.5002 118.622 82.6977 119.099 83.0493 119.451C83.401 119.802 83.8779 120 84.3752 120H118.125C118.622 120 119.099 119.802 119.451 119.451C119.803 119.099 120 118.622 120 118.125V111.302C119.999 110.296 119.756 109.305 119.292 108.413C118.828 107.521 118.156 106.753 117.334 106.174ZM94.442 73.2844C94.517 71.9437 95.3889 70.53 96.7183 69.5981C97.9427 68.7412 99.6227 68.2219 101.569 68.0963C102.555 68.04 104.331 68.0775 105.109 69.03C105.752 69.8119 105.767 71.1919 105.696 72.45C105.634 73.6837 105.529 75.0975 105.077 76.2525C105.071 76.2675 105.06 76.2769 105.053 76.2919L105 76.2656C102.351 75.1706 99.5514 75.1481 97.1045 75.1294C96.3743 75.1107 95.6436 75.1239 94.9145 75.1687C94.5808 74.5984 94.4168 73.9447 94.442 73.2844ZM90.5608 82.3406C91.2489 81.1819 91.8977 80.0887 92.7714 79.5356C93.8402 78.8719 95.3964 78.8475 97.0539 78.8812C99.287 78.8981 101.595 78.9169 103.566 79.7306C105.205 80.4131 106.751 81.6975 108.428 83.7637C112.601 88.9894 114.823 95.8106 114.525 102.476C114.499 103.037 114.454 103.674 114.251 104.087C114.152 104.284 114.004 104.408 114.026 104.421C113.959 104.419 113.736 104.361 113.08 103.864L106.8 99.2719C105.478 98.3006 103.98 97.2 103.27 95.8387C102.96 95.2369 102.761 94.5094 102.55 93.7369C102.313 92.8781 102.07 91.9894 101.636 91.0894C100.965 89.7188 100.005 88.6894 98.8877 88.1325C97.3314 87.3188 95.4733 87.4238 94.1758 88.38C93.9007 88.5799 93.6519 88.8136 93.4352 89.0756C90.831 89.0024 88.2393 89.4618 85.8189 90.4256C87.4039 87.7332 88.9845 85.0382 90.5608 82.3406ZM71.612 98.925C74.6702 99.7687 78.4745 100.822 81.1727 98.2331C81.2195 98.1881 81.2514 98.1281 81.2927 98.0775L81.302 98.085C83.9027 94.9875 87.9583 93.0563 92.0645 92.8219L92.0477 92.9306L91.9839 93.3619C91.862 94.2469 91.5433 94.7756 91.4402 94.8487C91.1905 94.8696 90.9475 94.9403 90.7256 95.0567C90.5038 95.173 90.3074 95.3327 90.1483 95.5262C89.9891 95.7197 89.8704 95.9431 89.799 96.1833C89.7277 96.4235 89.7052 96.6755 89.7329 96.9245C89.7606 97.1735 89.8379 97.4144 89.9603 97.6331C90.0826 97.8517 90.2476 98.0436 90.4454 98.1974C90.6432 98.3512 90.8698 98.4638 91.1118 98.5285C91.3538 98.5933 91.6064 98.6089 91.8545 98.5744C93.8552 98.3531 95.3289 96.5513 95.6945 93.9019L95.7602 93.4631C95.8689 92.7075 96.017 91.6725 96.3827 91.4137C96.5195 91.3106 96.8552 91.2975 97.187 91.47C97.5845 91.6687 97.9708 92.1188 98.267 92.7244C98.5464 93.3056 98.7358 93.9956 98.9364 94.7269C99.1895 95.6475 99.452 96.6019 99.9433 97.5581C101.061 99.7031 103.015 101.137 104.586 102.292L108.285 105H92.9683C92.447 105 91.937 105.051 91.4364 105.126L91.4195 105.056L76.6427 108.75H76.2227C76.6352 107.88 76.8752 106.931 76.8752 105.938C76.8752 102.319 73.9314 99.375 70.3127 99.375H52.6989C52.2016 99.375 51.7247 99.5725 51.3731 99.9242C51.0215 100.276 50.8239 100.753 50.8239 101.25C50.8239 101.747 51.0215 102.224 51.3731 102.576C51.7247 102.927 52.2016 103.125 52.6989 103.125H70.3127C70.8694 103.125 71.4136 103.29 71.8766 103.599C72.3395 103.909 72.7005 104.348 72.9138 104.862C73.1271 105.377 73.1831 105.943 73.0749 106.489C72.9667 107.035 72.6991 107.537 72.3058 107.931C72.0444 108.192 71.7336 108.4 71.3914 108.54C71.0493 108.681 70.6826 108.752 70.3127 108.75H40.3389C40.4437 106.877 40.45 104.999 40.3577 103.125H45.6658C46.1631 103.125 46.64 102.927 46.9916 102.576C47.3432 102.224 47.5408 101.747 47.5408 101.25C47.5408 100.753 47.3432 100.276 46.9916 99.9242C46.64 99.5725 46.1631 99.375 45.6658 99.375H40.0108C39.9883 99.2213 39.9527 99.0619 39.9302 98.9081L41.5089 98.61L41.5745 98.6044C41.5895 98.6025 41.6027 98.5913 41.6177 98.5894L43.9708 98.1544C46.5227 97.6856 49.0783 97.215 51.4033 96.7481C54.2852 96.1481 57.5495 95.4675 60.6283 95.8725C62.3758 96.0938 64.0839 96.6656 65.8914 97.2712C67.1645 97.6987 68.4808 98.1375 69.8589 98.4638C70.4195 98.5931 71.0102 98.7581 71.612 98.925ZM42.7689 93.7444C42.7537 93.6493 42.7574 93.5522 42.7798 93.4585C42.8022 93.3649 42.8429 93.2766 42.8995 93.1987C42.9561 93.1209 43.0276 93.0549 43.1097 93.0048C43.1919 92.9546 43.2832 92.9211 43.3783 92.9062L47.5295 92.3025C47.7067 92.2769 47.8868 92.3228 48.0302 92.43C48.1097 92.4886 48.1766 92.5627 48.2268 92.6477C48.2771 92.7328 48.3097 92.8271 48.3227 92.925L48.4108 93.5081C46.7057 93.8342 44.9994 94.1542 43.292 94.4681L42.8833 94.5431L42.7689 93.7444ZM61.4608 74.3869L66.2702 74.8669L59.7264 88.2094C59.3415 88.0236 58.9315 87.8947 58.5095 87.8269L56.2633 87.5006L61.4608 74.3869ZM62.3102 92.3606C62.3157 92.0933 62.2975 91.826 62.2558 91.5619L66.8795 82.1344L65.8333 93.3037C64.6786 92.9199 63.5022 92.605 62.3102 92.3606ZM53.0008 91.5713C53.0292 91.3758 53.1335 91.1994 53.2911 91.0804C53.4487 90.9614 53.6469 90.9094 53.8427 90.9356L57.9695 91.5356C58.0962 91.5565 58.2149 91.6112 58.3129 91.6941C58.411 91.7769 58.4848 91.8848 58.5264 92.0062C56.5633 92.0212 54.6433 92.295 52.8789 92.6269L53.0008 91.5713ZM64.6914 29.2406C64.6914 29.52 64.4552 29.7563 64.1758 29.7563C63.8964 29.7563 63.6602 29.52 63.6602 29.2406V25.5206C63.6602 25.2413 63.8964 25.005 64.1758 25.005C64.4552 25.005 64.6914 25.2413 64.6914 25.5206V29.2406ZM50.6252 3.75C58.382 3.75 64.6914 10.0594 64.6914 17.8162V21.3075C64.5208 21.2869 64.352 21.255 64.1758 21.255C63.9995 21.255 63.8308 21.2869 63.6602 21.3075V18.8794C63.6609 18.6101 63.6036 18.3439 63.4919 18.0989C63.3803 17.8539 63.217 17.6359 63.0134 17.4598C62.8097 17.2837 62.5704 17.1537 62.3118 17.0786C62.0532 17.0036 61.7815 16.9853 61.5152 17.025C54.2195 18.0844 49.0502 12.4406 47.717 10.8038V8.25375C47.717 7.75647 47.5195 7.27956 47.1679 6.92792C46.8162 6.57629 46.3393 6.37875 45.842 6.37875C45.3447 6.37875 44.8678 6.57629 44.5162 6.92792C44.1646 7.27956 43.967 7.75647 43.967 8.25375V11.1225C42.5402 14.9625 38.5914 17.2219 38.5539 17.2425C38.2618 17.405 38.0184 17.6425 37.8489 17.9307C37.6795 18.2188 37.5901 18.547 37.5902 18.8812V21.3094C37.4195 21.2887 37.2508 21.2569 37.0745 21.2569C36.8983 21.2569 36.7295 21.2887 36.5589 21.3094V17.8162C36.5589 10.0594 42.8683 3.75 50.6252 3.75ZM31.2302 17.1506C30.2139 16.9425 29.3402 16.1737 29.1039 15.2794C28.7852 14.0813 29.4527 12.5494 31.2133 10.4513C32.2183 9.23812 33.6939 7.67062 35.2145 7.67812C35.4302 7.6875 35.657 7.74375 35.8877 7.81875C34.0244 10.5652 32.97 13.7798 32.8445 17.0963C32.3161 17.2267 31.7662 17.2452 31.2302 17.1506ZM37.5902 29.2406C37.5902 29.52 37.3539 29.7563 37.0745 29.7563C36.7952 29.7563 36.5589 29.52 36.5589 29.2406V25.5206C36.5589 25.2413 36.7952 25.005 37.0745 25.005C37.3539 25.005 37.5902 25.2413 37.5902 25.5206V29.2406ZM41.3402 28.7981V19.9069C42.5702 19.0594 44.7208 17.3456 46.292 14.8312C48.7858 17.3569 53.5577 20.9794 59.9102 20.91V28.8C59.9102 34.0181 55.7458 38.2612 50.6252 38.2612C45.5045 38.2612 41.3402 34.0163 41.3402 28.7981ZM50.6252 42.0094C51.4802 42.0094 52.3164 41.9194 53.1264 41.76C53.267 42.5194 53.4545 43.2544 53.6889 43.9575C54.1408 45.3563 54.9658 46.4569 56.0027 47.3344C55.421 47.5459 54.829 47.728 54.2289 47.88C53.8845 47.9661 53.5717 48.1482 53.3267 48.4051C53.0818 48.662 52.9148 48.9832 52.8452 49.3312C52.832 49.3931 52.0033 53.5088 50.9327 57.2588C49.862 53.5088 49.0333 49.3931 49.0202 49.3312C48.9505 48.9832 48.7835 48.662 48.5386 48.4051C48.2936 48.1482 47.9808 47.9661 47.6364 47.88C47.0389 47.7293 46.4494 47.5484 45.8702 47.3381C46.9033 46.4644 47.7208 45.3713 48.1708 43.9819C48.3977 43.3144 48.5758 42.6 48.7164 41.8519C49.3427 41.9456 49.9764 42.0094 50.6252 42.0094ZM27.092 71.9644C28.0483 67.8206 29.9608 59.5538 31.1439 54.4631C31.3534 53.5495 31.836 52.7212 32.5276 52.0885C33.2193 51.4558 34.0871 51.0487 35.0158 50.9213C36.8345 50.6831 39.3658 50.3456 41.7508 49.5356C42.8327 50.1956 44.1114 50.7544 45.5833 51.2006C46.1552 53.8669 47.6758 60.4969 49.2564 63.6619C49.4119 63.9739 49.6513 64.2364 49.9478 64.4198C50.2442 64.6033 50.5859 64.7005 50.9345 64.7005C51.2832 64.7005 51.6249 64.6033 51.9213 64.4198C52.2177 64.2364 52.4571 63.9739 52.6127 63.6619C54.1952 60.4969 55.7139 53.8687 56.2858 51.2006C57.6292 50.8092 58.9175 50.2491 60.1202 49.5337C62.5033 50.3438 65.0327 50.6812 66.8495 50.9194C67.7805 51.047 68.6504 51.4555 69.3432 52.0904C70.036 52.7252 70.5187 53.5562 70.727 54.4725C71.9083 59.5519 73.8208 67.8206 74.7658 71.9437L69.8064 71.4487C69.7914 71.4469 69.7802 71.4375 69.767 71.4375C69.752 71.4356 69.7408 71.4431 69.7258 71.4413L60.6789 70.5375L62.1489 63.1912C62.2451 62.7043 62.1443 62.199 61.8685 61.7863C61.5928 61.3735 61.1646 61.0869 60.6779 60.9894C60.1912 60.8919 59.6857 60.9913 59.2721 61.2659C58.8586 61.5405 58.5709 61.9679 58.472 62.4544L56.597 71.8294C56.5454 72.086 56.5483 72.3507 56.6054 72.6062C56.6626 72.8617 56.7728 73.1023 56.9289 73.3125C57.1127 73.56 57.3602 73.7363 57.632 73.8675L52.2452 87.4575C51.318 87.7931 50.5259 88.4226 49.9895 89.25C49.8827 89.1825 49.7777 89.115 49.667 89.0588L44.1752 73.8881C44.4783 73.7684 44.7437 73.5696 44.9439 73.3125C45.2589 72.8869 45.3789 72.3487 45.2758 71.8294L43.4008 62.4544C43.3019 61.9679 43.0142 61.5405 42.6007 61.2659C42.1872 60.9913 41.6816 60.8919 41.1949 60.9894C40.7082 61.0869 40.28 61.3735 40.0043 61.7863C39.7285 62.199 39.6277 62.7043 39.7239 63.1912L41.1939 70.5394L32.2427 71.4431C32.2145 71.4431 32.1902 71.43 32.162 71.4319C32.1208 71.4338 32.087 71.4581 32.0477 71.4637L27.092 71.9644ZM40.3652 74.3906L45.5814 88.7962L42.8383 89.1956C42.6058 89.2294 42.3883 89.295 42.1708 89.3625L39.0564 82.5712C38.849 82.1192 38.4706 81.7681 38.0043 81.5951C37.5381 81.4221 37.0222 81.4414 36.5702 81.6488C36.1181 81.8561 35.767 82.2346 35.594 82.7008C35.421 83.1671 35.4403 83.683 35.6477 84.135L39.302 92.1038C39.0404 92.7977 38.9566 93.546 39.0583 94.2806L39.1952 95.2313L39.1502 95.2406C38.8652 94.3894 38.4489 93.5456 37.6933 92.8538C36.9714 92.1937 36.1333 91.8581 35.3402 91.6613L34.2677 75L40.3652 74.3906ZM3.78016 116.25C3.84391 112.192 3.97516 102.643 3.92266 97.215C3.91864 96.8784 4.04786 96.5539 4.28214 96.3123C4.51643 96.0706 4.83676 95.9314 5.17328 95.925L27.8664 95.0831C29.5445 95.0269 31.532 94.9894 33.5308 95.1488C34.3539 95.2144 34.8864 95.3681 35.162 95.6175C35.5314 95.9569 35.7245 96.7481 35.8764 97.4606C37.2583 103.982 36.6489 109.988 35.8389 116.25H3.78016ZM75.0002 116.25H39.617C39.7758 115.002 39.9196 113.752 40.0483 112.5H75.0002V116.25ZM116.25 116.25H86.2502V115.468C86.2521 113.687 86.9606 111.979 88.22 110.72C89.4795 109.46 91.1871 108.752 92.9683 108.75H113.696C115.105 108.75 116.25 109.896 116.25 111.302V116.25Z" fill="#171717"/>
</g>
</svg>
